<svg viewBox="0 0 1364 960" xmlns="http://www.w3.org/2000/svg">
  <defs></defs>
  <ellipse cx="682" cy="879.614" fill="#ebf4fd" rx="462.181" ry="31.974" class="colorEBF4FD svgShape"></ellipse>
  <path d="M491.361 484.363c-125.413 62.257-215.12-79.737-153.619-173.808 12.481-19.091 31.865-32.543 46.285-50.216 44.604-54.665 12.707-107.858 71.014-151.725C479.491 90.22 518.654 87 542.259 90.228c103.256 14.121 153.091 104.125 244.458 105.797 22.496.412 46.47-4.053 66.497 6.205 78.084 52.416-9.215 190.671-75.126 215.675-23.563 8.87-49.408 9.346-73.757 15.729-30.747 6.106-53.414 39.441-83.565 38.524-46.217-1.404-88.552-8.075-129.405 12.205z" class="colorF1F7FD svgShape" style="fill: rgb(162, 133, 225);"></path>
  <path d="M1065.968 671.768c-6.324-97.991-82.821-109.051-54.25-223.364 27.293-109.199-160.075-154.018-207.318-52.375 0 0 20.699 54.164-38.389 132.008-12.405 17.988-28.194 34.009-36.55 54.202-16.517 54.447-8.952 136.018 45.984 166.003 20.558 9.752 44.428 8.371 66.785 12.602 33.784 6.392 60.859 59.013 95.239 59.32 68.719.615 133.66-68.418 128.499-148.396zM546.14 730.323c.949-60.837-42.959-106.362-61.719-159.892l24.983-3.176c-131.975-63.452-238.747 120.728-157.089 223.674 67.8 85.475 208.677 66.309 193.825-60.606z" class="colorF1F7FD svgShape" style="fill: rgb(162, 133, 225);"></path>
  <ellipse cx="1054.241" cy="514.54" rx="30.84" ry="48.386" transform="rotate(-11.175 1054.382 514.597)" class="colorF1F7FD svgShape" style="fill: rgb(65, 142, 66);"></ellipse>
  <ellipse cx="360.671" cy="215.465" rx="48.386" ry="30.84" transform="rotate(-66.334 360.655 215.466)" class="colorF1F7FD svgShape" style="fill: rgb(162, 133, 225);"></ellipse>
  <path d="M1046.007 234.228h-7.943a103.684 103.684 0 0 0-11.092-28.942l6.585-6.585c9.839-9.839 9.839-25.79 0-35.629-9.839-9.839-25.79-9.839-35.629 0l-5.624 5.624a103.037 103.037 0 0 0-28.301-12.63v-9.313c0-13.914-11.28-25.194-25.194-25.194s-25.194 11.28-25.194 25.194v7.944a103.753 103.753 0 0 0-28.942 11.09l-6.585-6.585c-9.839-9.839-25.791-9.839-35.629 0-9.839 9.839-9.839 25.791 0 35.629l5.622 5.622a103.056 103.056 0 0 0-12.633 28.302h-9.308c-13.915 0-25.194 11.28-25.194 25.194s11.279 25.194 25.194 25.194h7.938a103.685 103.685 0 0 0 11.092 28.947l-6.581 6.58c-9.839 9.839-9.839 25.791 0 35.629 9.839 9.839 25.791 9.839 35.629 0l5.604-5.604a104.616 104.616 0 0 0 28.321 12.636v9.287c0 13.915 11.279 25.194 25.194 25.194 13.914 0 25.194-11.28 25.194-25.194v-7.936a103.73 103.73 0 0 0 28.947-11.093l6.581 6.581c9.839 9.839 25.791 9.839 35.63 0 9.839-9.839 9.839-25.791 0-35.63l-5.606-5.606.001-.002a104.584 104.584 0 0 0 12.632-28.317h9.291c13.914 0 25.194-11.28 25.194-25.194-.001-13.914-11.28-25.193-25.194-25.193zm-34.92 22.461c0 41.418-33.597 75.015-75.016 75.015-41.418 0-75.016-33.597-75.016-75.015 0-41.442 33.597-75.016 75.016-75.016 41.419.001 75.016 33.574 75.016 75.016z" class="colorD4E5F8 svgShape" style="fill: rgb(162, 133, 225);"></path>
  <path d="M888.661 256.689c0 26.184 21.227 47.411 47.411 47.411 26.185 0 47.435-21.227 47.435-47.411 0-26.185-21.25-47.435-47.435-47.435-26.184.001-47.411 21.251-47.411 47.435zM788.832 123.114h-5.266a68.783 68.783 0 0 0-7.354-19.19l4.366-4.366c6.524-6.523 6.524-17.1 0-23.623-6.523-6.523-17.1-6.523-23.623 0l-3.729 3.729a68.29 68.29 0 0 0-18.758-8.372l-.007-.001v-6.175c0-9.226-7.479-16.704-16.704-16.704s-16.705 7.479-16.705 16.704v5.267a68.794 68.794 0 0 0-19.189 7.353l-4.366-4.366c-6.523-6.524-17.1-6.524-23.623 0-6.524 6.523-6.524 17.1 0 23.623l3.727 3.728a68.31 68.31 0 0 0-8.375 18.76l-.001.005h-6.171c-9.226 0-16.704 7.479-16.704 16.704s7.478 16.704 16.704 16.704h5.263a68.76 68.76 0 0 0 7.354 19.193l-4.363 4.363c-6.524 6.524-6.524 17.1 0 23.623 6.523 6.524 17.1 6.524 23.623 0l3.715-3.715a69.35 69.35 0 0 0 18.778 8.377v6.157c0 9.226 7.479 16.705 16.704 16.705s16.704-7.479 16.704-16.705v-5.262a68.774 68.774 0 0 0 19.192-7.355l4.363 4.363c6.523 6.523 17.1 6.523 23.624 0 6.523-6.523 6.523-17.1 0-23.624l-3.717-3.717.001-.001a69.372 69.372 0 0 0 8.376-18.775h6.16c9.226 0 16.704-7.479 16.704-16.704s-7.477-16.703-16.703-16.703zm-23.152 14.893c0 27.462-22.276 49.737-49.737 49.737-27.462 0-49.737-22.276-49.737-49.737 0-27.477 22.276-49.737 49.737-49.737 27.461-.001 49.737 22.259 49.737 49.737z" class="colorD4E5F8 svgShape" style="fill: rgb(162, 133, 225);"></path>
  <path d="M684.508 138.007c0 17.361 14.074 31.435 31.435 31.435 17.361 0 31.451-14.074 31.451-31.435 0-17.361-14.089-31.451-31.451-31.451-17.361 0-31.435 14.09-31.435 31.451z" class="colorD4E5F8 svgShape" style="fill: rgb(162, 133, 225);"></path>
  <path d="M917.819 503.73c1.775-3.776 7.063-4.771 10.816-2.967 3.753 1.803 6.166 5.59 7.822 9.426 2.679 6.205 3.794 12.421 4.673 18.967a277.64 277.64 0 0 1 6.023-17.794 285.528 285.528 0 0 1 4.621-11.522c-8.465-4.05-15.685-10.677-20.416-18.784-1.793-3.073-3.245-6.882-1.723-10.097 1.778-3.757 7.066-4.751 10.817-2.961 3.751 1.79 6.16 5.554 7.812 9.367 2.775 6.403 3.863 12.821 4.753 19.605 5.139-11.68 11.102-23.005 18.004-33.726-7.555-5.331-13.508-12.916-16.843-21.543-1.284-3.318-2.114-7.309-.101-10.243 2.351-3.427 7.731-3.57 11.15-1.207 3.42 2.362 5.202 6.459 6.228 10.487 1.664 6.526 1.776 12.816 1.604 19.394 7.453-11.187 16.208-22.108 27.284-29.796.23-.16.468-.31.7-.468-6.835-6.379-11.725-14.827-13.818-23.942-.797-3.468-1.048-7.536 1.362-10.152 2.817-3.056 8.161-2.43 11.208.396 3.047 2.826 4.226 7.136 4.667 11.269.778 7.282-.22 14.026-1.478 21.131 13.036-8.531 27.701-14.696 40.422-23.662-7.02-6.416-12.046-14.994-14.175-24.265-.797-3.467-1.049-7.536 1.362-10.152 2.816-3.056 8.161-2.429 11.208.396 3.047 2.826 4.226 7.136 4.667 11.269.799 7.478-.276 14.388-1.581 21.705 3.14-2.297 6.15-4.779 8.971-7.536 5.712-5.581 10.173-12.332 13.439-19.691-8.694-4.369-15.986-11.489-20.534-20.093-1.662-3.145-2.953-7.012-1.298-10.161 1.934-3.678 7.26-4.45 10.932-2.504 3.672 1.946 5.921 5.808 7.412 9.687 2.734 7.115 3.46 14.16 4.089 21.679 5.024-11.986 6.934-25.467 5.904-38.124-7.347-4.896-13.299-11.878-16.921-19.932-1.459-3.245-2.502-7.186-.649-10.223 2.165-3.549 7.529-3.979 11.07-1.803 3.541 2.176 5.54 6.172 6.78 10.139 1.979 6.328 2.445 12.507 2.632 18.974.13.202.223.445.253.738 1.118 10.753.014 21.691-2.904 32.088a97.689 97.689 0 0 1-2.189 6.825c5.757-6.373 13.267-11.162 21.496-13.629 3.408-1.022 7.452-1.539 10.22.695 3.234 2.611 2.959 7.984.338 11.21-2.621 3.226-6.845 4.683-10.94 5.395-7.638 1.325-14.804.626-22.448-.234-1.918 4.647-4.266 9.111-7.216 13.174-4.466 6.153-9.928 11.191-15.913 15.599 8.228-3.283 17.389-4.218 26.103-2.607 3.498.647 7.333 2.032 8.776 5.283 1.686 3.798-1.012 8.454-4.817 10.129-3.804 1.674-8.227 1.043-12.195-.193-7.604-2.37-13.789-6.415-20.393-10.804-10.083 6.983-21.42 12.429-31.941 18.474-3.312 1.903-6.545 3.884-9.655 6.031 8.744-4.012 18.727-5.279 28.191-3.543 3.499.642 7.335 2.022 8.783 5.272 1.691 3.797-1.001 8.456-4.803 10.135-3.802 1.679-8.226 1.054-12.196-.178-7.78-2.414-14.079-6.581-20.86-11.077-3.29 2.324-6.428 4.853-9.345 7.712-5.335 5.23-10.069 11.06-14.407 17.133a186.923 186.923 0 0 0-3.38 4.903c7.547-4.376 16.319-6.634 25.043-6.389 3.556.1 7.557.878 9.484 3.868 2.251 3.494.302 8.51-3.198 10.749-3.501 2.24-7.969 2.298-12.08 1.687-7.596-1.129-14.129-3.998-21.042-7.178-6.741 10.475-12.508 21.606-17.506 33.017 6.513-6.362 14.889-10.806 23.823-12.575 3.49-.691 7.565-.82 10.106 1.669 2.969 2.908 2.182 8.231-.736 11.191-2.917 2.961-7.26 4.008-11.405 4.324-7.865.599-15.043-.841-22.717-2.462a312.515 312.515 0 0 0-1.917 4.565c-3.427 8.376-6.488 16.938-9.064 25.641 6.438-6.099 14.613-10.358 23.315-12.081 3.49-.691 7.564-.819 10.107 1.669 2.969 2.908 2.181 8.231-.736 11.192-2.917 2.96-7.261 4.007-11.405 4.323-7.649.583-14.647-.763-22.084-2.328-2.817 9.957-4.985 20.092-6.31 30.341-.277 2.135-3.568 1.56-3.293-.571 1.339-10.349 3.549-20.58 6.4-30.631-8.5-4.078-15.753-10.761-20.505-18.94-1.796-3.092-3.251-6.923-1.733-10.155zM439.689 288.089c-2.656-2.414-6.778-2.8-10.098-1.447-3.319 1.353-5.862 4.216-7.426 7.441-1.563 3.227-2.236 6.811-2.641 10.375-.67 5.898-.592 12.065 1.336 17.627a169.874 169.874 0 0 1-22.294-13.613c-.643-.464-1.278-.94-1.915-1.412l11.946-14.314c2.657-3.183 5.373-6.472 6.649-10.418 1.277-3.947.787-8.761-2.285-11.554-2.656-2.414-6.778-2.8-10.098-1.447-3.319 1.353-5.862 4.215-7.426 7.441-1.563 3.226-2.236 6.811-2.641 10.375-.691 6.083-.589 12.456 1.523 18.152a173.336 173.336 0 0 1-21.435-19.544l11.547-14.967c2.532-3.283 5.12-6.673 6.245-10.666 1.124-3.993.451-8.784-2.727-11.458-2.746-2.311-6.881-2.538-10.145-1.059-3.265 1.479-5.696 4.438-7.134 7.721-1.439 3.284-1.974 6.892-2.242 10.469-.429 5.727-.153 11.682 1.804 17.03a170.703 170.703 0 0 1-12.935-16.541 163.092 163.092 0 0 1-3.41-5.201l11.368-15.784c2.423-3.365 4.898-6.838 5.891-10.866.993-4.027.162-8.795-3.101-11.363-2.821-2.219-6.96-2.31-10.174-.724-3.214 1.586-5.548 4.623-6.877 7.952-1.33 3.33-1.746 6.954-1.896 10.538-.215 5.121.142 10.403 1.735 15.234a163.49 163.49 0 0 1-9.426-18.861l2.418-18.81c.529-4.115 1.051-8.351.008-12.369-1.044-4.018-4.042-7.818-8.131-8.525-3.535-.611-7.215 1.28-9.286 4.206-2.07 2.926-2.675 6.709-2.26 10.273.415 3.564 1.773 6.952 3.346 10.178 2.898 5.945 6.755 11.68 12.211 15.352.008.022.01.042.02.064a165.02 165.02 0 0 0 10.071 20.053c-4.112-3.399-9.199-5.659-14.331-7.272-3.423-1.075-6.974-1.915-10.557-1.794-3.584.12-7.233 1.283-9.816 3.767-2.583 2.485-3.903 6.408-2.773 9.814 1.308 3.94 5.511 6.34 9.637 6.774s8.234-.714 12.222-1.851l18.22-5.193a170.478 170.478 0 0 0 16.478 21.962c-5.005-2.547-10.791-3.563-16.447-3.867-3.581-.192-7.228-.124-10.668.882-3.44 1.006-6.685 3.039-8.57 6.088-1.885 3.049-2.19 7.179-.25 10.199 2.244 3.494 6.909 4.776 11.012 4.172 4.104-.604 7.797-2.737 11.377-4.828l16.347-9.552c.196.211.388.427.585.637a175.708 175.708 0 0 0 20.986 19.024c-5.926-2.116-12.529-2.006-18.792-1.057-3.545.537-7.101 1.342-10.265 3.025-3.165 1.683-5.93 4.332-7.158 7.7-1.228 3.369-.69 7.476 1.82 10.042 2.903 2.967 7.73 3.279 11.625 1.856 3.894-1.423 7.079-4.26 10.16-7.034l14.524-13.077c.105.079.212.157.318.235l-.01.185.099-.119a172.795 172.795 0 0 0 23.352 14.637c-5.642.346-11.189 2.387-16.27 4.978-3.254 1.66-6.433 3.582-8.953 6.227s-4.344 6.095-4.453 9.746c-.108 3.651 1.726 7.448 4.974 9.121 3.757 1.935 8.522.683 11.83-1.946 3.309-2.629 5.478-6.396 7.567-10.069l8.904-15.65.35-.42a164.612 164.612 0 0 0 28.391 10.731c1.032.284 1.673-1.274.627-1.561a164.308 164.308 0 0 1-27.905-10.503l11.333-13.579c2.656-3.183 5.373-6.471 6.649-10.418 1.278-3.943.789-8.757-2.284-11.55z" class="colorB7CFF5 svgShape" style="fill: rgb(65, 142, 66);"></path>
  <path d="M 440.572 761.615 L 440.572 215.979 C 440.572 193.746 458.596 175.722 480.829 175.722 L 912.055 175.722 C 934.288 175.722 952.312 193.746 952.312 215.979 L 952.312 761.614 C 952.312 783.848 934.288 801.872 912.054 801.872 L 480.83 801.872 C 458.596 801.873 440.572 783.849 440.572 761.615 Z" class="color6697D3 svgShape" style="fill: rgb(105, 48, 229);"></path>
  <path fill="#ffffff" d="M911.278 793.969h-437.67c-16.089 0-29.132-13.043-29.132-29.132V273.001c0-16.089 13.043-29.132 29.132-29.132h437.67c16.089 0 29.132 13.043 29.132 29.132v491.836c0 16.089-13.043 29.132-29.132 29.132z" class="colorFFF svgShape"></path>
  <circle cx="481.71" cy="209.838" r="13.11" fill="#ffffff" class="colorFFF svgShape"></circle>
  <circle cx="532.292" cy="209.838" r="13.11" fill="#ffffff" class="colorFFF svgShape"></circle>
  <circle cx="582.874" cy="209.838" r="13.11" fill="#ffffff" class="colorFFF svgShape"></circle>
  <path fill="#ffffff" d="M894.081 220.112H737.222c-5.674 0-10.274-4.6-10.274-10.274 0-5.674 4.6-10.274 10.274-10.274h156.859c5.674 0 10.274 4.6 10.274 10.274.001 5.674-4.6 10.274-10.274 10.274z" class="colorFFF svgShape"></path>
  <path d="M890.553 378.591H687.227c-2.887 0-5.227-1.266-5.227-2.827s2.34-2.826 5.227-2.826h203.326c2.887 0 5.227 1.265 5.227 2.826 0 1.561-2.34 2.827-5.227 2.827zM890.553 395.169H687.227c-2.887 0-5.227-1.266-5.227-2.827s2.34-2.826 5.227-2.826h203.326c2.887 0 5.227 1.265 5.227 2.826 0 1.562-2.34 2.827-5.227 2.827zM890.553 411.747H687.227c-2.887 0-5.227-1.266-5.227-2.827s2.34-2.826 5.227-2.826h203.326c2.887 0 5.227 1.265 5.227 2.826 0 1.562-2.34 2.827-5.227 2.827zM890.553 428.326H687.227c-2.887 0-5.227-1.266-5.227-2.827s2.34-2.826 5.227-2.826h203.326c2.887 0 5.227 1.265 5.227 2.826 0 1.561-2.34 2.827-5.227 2.827zM890.553 444.904H687.227c-2.887 0-5.227-1.266-5.227-2.827s2.34-2.827 5.227-2.827h203.326c2.887 0 5.227 1.265 5.227 2.827 0 1.561-2.34 2.827-5.227 2.827z" class="colorC3DEFA svgShape" style="fill: rgb(216, 199, 255);"></path>
  <path fill="#ff9c61" d="M529.473 516.212h-6.414c-8.543 0-15.468-6.925-15.468-15.468s6.925-15.469 15.468-15.469h6.414c8.543 0 15.469 6.926 15.469 15.469-.001 8.542-6.926 15.468-15.469 15.468zM529.472 558.519h-6.414c-8.543 0-15.468-6.925-15.468-15.469 0-8.543 6.926-15.469 15.469-15.469h6.414c8.543 0 15.468 6.926 15.468 15.468 0 8.545-6.926 15.47-15.469 15.47z" class="colorFF9C61 svgShape"></path>
  <path d="M759.411 507.5h70.344c.852 0 1.543-.605 1.543-1.351v-2.097c0-.746-.691-1.351-1.543-1.351h-70.344c-.852 0-1.543.605-1.543 1.351v2.097c.001.746.692 1.351 1.543 1.351zM697.029 552.932h93.259c.852 0 1.543-.605 1.543-1.351v-2.097c0-.746-.691-1.351-1.543-1.351h-93.259c-.852 0-1.543.605-1.543 1.351v2.097c0 .746.691 1.351 1.543 1.351zM711.598 507.5h36.718c.852 0 1.543-.605 1.543-1.351v-2.097c0-.746-.691-1.351-1.542-1.351h-36.718c-.852 0-1.543.605-1.543 1.351v2.097c0 .746.691 1.351 1.542 1.351zM663.639 538.538h36.718c.852 0 1.543-.605 1.543-1.351v-2.097c0-.746-.691-1.351-1.543-1.351h-36.718c-.852 0-1.543.605-1.543 1.351v2.097c.001.746.691 1.351 1.543 1.351zM826.882 493.6h-241.65c-.852 0-1.543-.605-1.543-1.351v-2.097c0-.746.691-1.351 1.542-1.351h241.65c.852 0 1.542.605 1.542 1.351v2.097c.001.746-.689 1.351-1.541 1.351zM655.575 507.5h-70.344c-.852 0-1.543-.605-1.543-1.351v-2.097c0-.746.691-1.351 1.543-1.351h70.344c.852 0 1.543.605 1.543 1.351v2.097c0 .746-.691 1.351-1.543 1.351z" class="colorC3DEFA svgShape" style="fill: rgb(216, 199, 255);"></path>
  <path d="M703.71 538.538H585.232c-.852 0-1.543-.605-1.543-1.351v-2.097c0-.746.691-1.351 1.543-1.351H703.71c.852 0 1.543.605 1.543 1.351v2.097c0 .746-.691 1.351-1.543 1.351zM678.491 552.932h-93.259c-.852 0-1.543-.605-1.543-1.351v-2.097c0-.746.691-1.351 1.543-1.351h93.259c.852 0 1.543.605 1.543 1.351v2.097c0 .746-.691 1.351-1.543 1.351zM751.347 538.538H714.63c-.852 0-1.543-.605-1.543-1.351v-2.097c0-.746.691-1.351 1.543-1.351h36.718c.852 0 1.543.605 1.543 1.351v2.097c-.001.746-.692 1.351-1.544 1.351z" class="colorC3DEFA svgShape" style="fill: rgb(216, 199, 255);"></path>
  <path fill="#ffffff" d="m533.153 491.672-7.711 10.769-5.367-5.038-2.399 3.054 8.27 7.077 11.616-12.482-4.409-3.38zM533.153 535.735l-7.711 10.769-5.367-5.038-3.233 4.114 9.101 6.018 11.618-12.484-4.408-3.379z" class="colorFFF svgShape"></path>
  <path d="M894.723 706.496H784.279a1.056 1.056 0 0 1-1.056-1.057v-1.64c0-.583.473-1.057 1.056-1.057h110.445c.583 0 1.056.473 1.056 1.057v1.64c0 .584-.473 1.057-1.057 1.057zM894.723 721.564h-41.296a1.056 1.056 0 0 1-1.056-1.056v-1.64c0-.583.473-1.056 1.056-1.056h41.296c.583 0 1.056.473 1.056 1.056v1.64a1.055 1.055 0 0 1-1.056 1.056zM838.444 721.564h-22.972a1.056 1.056 0 0 1-1.056-1.056v-1.64c0-.583.473-1.056 1.056-1.056h22.972c.584 0 1.056.473 1.056 1.056v1.64a1.055 1.055 0 0 1-1.056 1.056zM894.723 736.733H871.75a1.057 1.057 0 0 1-1.057-1.056v-1.64c0-.583.473-1.057 1.057-1.057h22.973c.583 0 1.056.473 1.056 1.056v1.64a1.055 1.055 0 0 1-1.056 1.057z" class="colorC3DEFA svgShape" style="fill: rgb(216, 199, 255);"></path>
  <path fill="#62c0a6" d="M 693.094 645.936 L 620.664 645.936 C 617.25 645.937 614.482 643.169 614.483 639.755 L 614.483 587.371 C 614.482 583.957 617.25 581.189 620.664 581.19 L 693.094 581.19 C 696.508 581.189 699.276 583.957 699.275 587.371 L 699.275 639.755 C 699.276 643.169 696.508 645.937 693.094 645.936 Z M 589.021 645.936 L 516.591 645.936 C 513.177 645.937 510.409 643.169 510.41 639.755 L 510.41 587.371 C 510.409 583.957 513.177 581.189 516.591 581.19 L 589.021 581.19 C 592.435 581.189 595.203 583.957 595.202 587.371 L 595.202 639.755 C 595.202 643.169 592.435 645.936 589.021 645.936 Z" class="color62C0A6 svgShape"></path>
  <path d="M 894.663 590.54 L 774.81 590.54 C 774.193 590.54 773.694 590.04 773.694 589.424 L 773.694 587.691 C 773.694 587.074 774.194 586.575 774.81 586.575 L 894.664 586.575 C 895.281 586.575 895.78 587.075 895.78 587.691 L 895.78 589.424 C 895.78 590.04 895.28 590.54 894.663 590.54 Z M 894.663 607.952 L 774.81 607.952 C 774.193 607.952 773.694 607.452 773.694 606.836 L 773.694 605.103 C 773.694 604.486 774.194 603.987 774.81 603.987 L 894.664 603.987 C 895.281 603.987 895.78 604.487 895.78 605.103 L 895.78 606.836 C 895.78 607.452 895.28 607.952 894.663 607.952 Z M 894.663 625.365 L 774.81 625.365 C 774.193 625.365 773.694 624.865 773.694 624.249 L 773.694 622.516 C 773.694 621.899 774.194 621.4 774.81 621.4 L 894.664 621.4 C 895.281 621.4 895.78 621.9 895.78 622.516 L 895.78 624.249 C 895.78 624.865 895.28 625.365 894.663 625.365 Z M 894.663 646.116 L 774.81 646.116 C 774.193 646.116 773.694 645.616 773.694 645 L 773.694 643.267 C 773.694 642.65 774.194 642.151 774.81 642.151 L 894.664 642.151 C 895.281 642.151 895.78 642.651 895.78 643.267 L 895.78 645 C 895.78 645.616 895.28 646.116 894.663 646.116 Z M 591.966 664.68 L 512.691 664.68 C 510.935 664.68 509.838 662.779 510.716 661.258 C 511.123 660.553 511.876 660.118 512.691 660.118 L 591.966 660.118 C 593.722 660.118 594.819 662.019 593.941 663.539 C 593.534 664.245 592.781 664.68 591.966 664.68 Z M 591.966 678.19 L 512.691 678.19 C 510.935 678.19 509.838 676.29 510.716 674.769 C 511.123 674.064 511.876 673.629 512.691 673.629 L 591.966 673.629 C 593.722 673.666 594.779 675.589 593.869 677.091 C 593.465 677.759 592.747 678.174 591.966 678.19 Z M 696.517 664.68 L 617.242 664.68 C 615.486 664.68 614.389 662.779 615.267 661.258 C 615.674 660.553 616.427 660.118 617.242 660.118 L 696.517 660.118 C 698.273 660.118 699.37 662.019 698.492 663.539 C 698.085 664.245 697.332 664.68 696.517 664.68 Z M 696.517 678.19 L 617.242 678.19 C 615.486 678.19 614.389 676.29 615.267 674.769 C 615.674 674.064 616.427 673.629 617.242 673.629 L 696.517 673.629 C 698.273 673.629 699.37 675.529 698.492 677.05 C 698.085 677.755 697.332 678.19 696.517 678.19 Z" class="colorC3DEFA svgShape" style="fill: rgb(216, 199, 255);"></path>
  <path fill="#ffffff" d="m551.585 612.616-19.721-13.068a5.173 5.173 0 0 1 2.351-.562h34.743c.848 0 1.646.203 2.351.562l-19.724 13.068z" class="colorFFF svgShape"></path>
  <path fill="#ffffff" d="M 574.159 603.188 L 574.159 622.698 C 574.16 625.571 571.83 627.901 568.957 627.901 L 534.214 627.901 C 531.341 627.901 529.011 625.571 529.012 622.698 L 529.012 603.188 C 529.012 601.998 529.412 600.901 530.086 600.024 L 551.584 614.269 L 573.084 600.024 C 573.783 600.931 574.161 602.043 574.159 603.188 Z M 644.233 616.441 C 643.869 613.393 644.352 609.982 645.951 606.435 C 647.263 603.651 649.562 601.454 652.402 600.269 C 654.12 599.533 656.012 599.16 657.975 599.16 C 667.474 598.661 671.939 608.825 668.392 616.662 C 667.284 618.799 665.06 621.704 662.693 620.897 C 662.004 620.739 665.218 603.87 665.163 603.206 L 661.118 603.206 L 660.746 605.549 C 658.609 602.612 656.313 601.931 654.216 602.62 C 650.266 603.894 647.029 609.982 646.973 614.834 C 646.965 615.151 646.973 615.459 646.997 615.76 C 646.467 622.916 653.622 627.832 658.736 622.204 C 661.055 628.188 669.525 622.022 671.093 618.064 C 673.895 612.539 673.009 604.394 668.6 600.222 C 664.143 595.298 654.739 594.879 649.246 598.306 C 649.238 598.314 649.222 598.322 649.214 598.33 C 643.966 601.536 640.998 607.916 641.069 614.248 C 641.041 615.449 641.128 616.65 641.33 617.834 C 643.728 632.755 662.726 636.816 672.692 624.879 L 668.441 624.879 C 657.342 633.341 645.5 627.175 644.233 616.441 Z M 656.827 620.494 C 654.041 623.375 651.025 620.264 651.349 616.773 C 651.349 615.103 651.586 613.267 652.069 611.256 C 652.156 610.781 652.275 610.298 652.441 609.823 C 652.789 608.81 653.312 607.852 653.953 607.124 C 655.204 605.699 656.906 605.161 658.647 606.855 C 660.698 609.792 658.767 617.929 656.827 620.494 Z" class="colorFFF svgShape"></path>
  <path d="M639.535 323.942H502.57c-9.51 0-17.254 7.73-17.254 17.24v109.433c0 9.51 7.744 17.24 17.254 17.24h136.965c9.51 0 17.24-7.73 17.24-17.24V341.182c0-9.51-7.73-17.24-17.24-17.24zm11.406 126.674c0 6.282-5.124 11.406-11.406 11.406H502.57c-6.297 0-11.406-5.124-11.406-11.406V341.182c0-6.282 5.11-11.406 11.406-11.406h136.965c6.282 0 11.406 5.124 11.406 11.406v109.434z" class="colorC3DEFA svgShape" style="fill: rgb(216, 199, 255);"></path>
  <path fill="#30334d" d="M605.518 402.731c-1.795-1.303-3.387-2.504-4.256-3.981 6.065-18.586-5.023-11.986-7.137-25.853 1.115-7.846 2.722-17.168-4.531-24.102-6.934-6.514-15.981-5.805-22.654-1.911-8.381-6.311-20.294.232-24.174 8.584-2.779 5.819-1.1 13.65-2.736 20.034-2.982 3.793-9.496 8.83-10.089 12.825-.376 2.794.449 5.761 1.115 8.135.84 3.286 1.505 4.314-.927 5.921-7.513 4.603-9.423 16.705-.912 22.002.463.29.955.565 1.491.811 2.635 1.433 5.008 2.026 5.008 2.026h63.242c1.375-.376 3.387-1.144 5.37-2.287 3.069-1.752 6.051-4.386 6.427-7.759 3.361-8.134-1.169-11.463-5.237-14.445zm-16.632-53.153c5.385 4.907 5.501 12.304 4.878 18.138.623-9.872-3.633-19.136-13.404-22.509 2.75.506 5.674 1.765 8.526 4.371zm-62.62 58.292c1.708-2.765 4.372-4.256 6.195-6.181.825-1.129.289-3.069-.391-5.501-3.17-9.062.478-11.204 6.992-17.964-.188.376-.405.738-.622 1.086a10.328 10.328 0 0 1-2.722 2.837c-8.164 5.877-1.375 15.185-2.2 18.861-.579 2.65-4.487 3.113-7.252 6.862zm84.434 5.747c-1.809-10.031-9.38-8.613-9.626-13.288 3.677 4.197 10.828 6.021 9.626 13.288z" class="color30334D svgShape"></path>
  <path fill="#ffa44a" d="M606.942 462.274c-.987-.133-80.716-.069-80.716-.069s1.274-36.001 3.632-39.632c1.944-2.993 9.595-6.652 15.89-9.167 3.293-1.31 10.64-3.436 13.255-3.993 8.301-.31 20.326-.119 28.76 3.166 6.264 1.918 13.014 4.746 15.353 8.378 2.4 3.696 3.405 27.225 3.826 41.317z" class="colorFFA44A svgShape"></path>
  <path fill="#ffffff" d="M564.982 446.007c-.043-2.94 4.575-2.94 4.532 0 .043 2.94-4.575 2.94-4.532 0zM564.982 453.598c-.043-2.94 4.575-2.94 4.532 0 .043 2.94-4.575 2.94-4.532 0zM564.982 429.054c-.043-2.94 4.575-2.94 4.532 0 .043 2.94-4.575 2.94-4.532 0zM564.982 436.645c-.043-2.94 4.575-2.94 4.532 0 .043 2.941-4.575 2.941-4.532 0zM591.02 434.456h-12.91a.96.96 0 1 1 0-1.922h12.91c1.242-.017 1.249 1.941 0 1.922zM559.085 409.41c-2.826 1.431-5.302 3.104-6.45 5.482 5.836 1.471 10.144 2.091 14.361 6.398l-7.911-11.88zM574.988 409.41c2.826 1.431 5.22 3.104 6.369 5.482-5.836 1.471-10.145 2.091-14.361 6.398l7.992-11.88z" class="colorFFF svgShape"></path>
  <path fill="#f9cbcb" d="M574.988 409.41c-.056 1.054-7.928 11.988-7.928 11.988l-7.975-11.988c.681-2.813 2.799-11.38 3.203-14.103l9.829.2.061.472 2.81 13.431z" class="colorF9CBCB svgShape"></path>
  <path fill="#ebb0b0" d="M575.046 409.44c-.056 1.054-3.853-4.947-5.636-7.357-1.673-2.252-5.586-2.658-7.9-2.634l.774-4.03 9.829.2.064.36 2.869 13.461z" class="colorEBB0B0 svgShape"></path>
  <path fill="#f9cbcb" d="m550.251 378.732 2.499 8.092c-.104-.015-.163-.045-.252-.015l-.015-.044c-12.692-.483-13.647-13.733-4.956-12.182.325 1.54 1.666 2.851 2.724 4.149zM583.248 387.792c-.306.078-.601.11-.953.178.023-.003 1.461-7.353 1.515-7.614.873-1.363 1.609-2.861 2.227-4.474 7.535-2.374 9.401 9.023-2.789 11.91z" class="colorF9CBCB svgShape"></path>
  <path fill="#f9cbcb" d="M587.886 374.629c-.848 21.282-24.749 33.097-37.451 11.977-18.414-33.866 35.113-53.003 37.451-11.977z" class="colorF9CBCB svgShape"></path>
  <path fill="#ebb0b0" d="M589.217 365.569c-6.442-5.544-11.389-15.145-22.337-14.358 5.378.433 10.152 3.142 13.569 7.247-4.917-.75-22.38-2.168-22.38-2.168 4.99 14.821 23.083 11.302 27.329 22.569-1.981 10.455-9.921 19.275-19.429 18.958 12.279 1.306 23.282-12.775 21.792-26.299l1.456-5.949z" class="colorEBB0B0 svgShape"></path>
  <path fill="#30334d" d="M547.35 377.058c5.71-6.03 10.54-12.427 10.718-20.767 8.631 16.8 29.409 7.05 30.326 26.567 2.554-2.764 2.965-13.851 1.83-19.03-1.154-5.266-17.703-15.648-20.467-16.234-8.352-.28-14.881 2.471-20.983 4.978l-3.372 8.559c0 .001-.994 10.362 1.948 15.927z" class="color30334D svgShape"></path>
  <path d="M844.984 311.272H547.585c-7.669 0-13.886-6.217-13.886-13.886s6.217-13.886 13.886-13.886h297.399c7.669 0 13.886 6.217 13.886 13.886s-6.217 13.886-13.886 13.886z" class="colorC3DEFA svgShape" style="fill: rgb(216, 199, 255);"></path>
  <path fill="#ffffff" d="M740.003 294.135h-83.725a1.488 1.488 0 1 1 0-2.976h83.725a1.489 1.489 0 0 1 0 2.976zM782.983 304.962H613.297a1.488 1.488 0 1 1 0-2.976h169.686a1.488 1.488 0 1 1 0 2.976z" class="colorFFF svgShape"></path>
  <path fill="#ffd4d1" d="m914.153 840.577-.94 19.949c3.691 7.322 9.27 7.815 16.136.799l5.225-21.103-20.421.355z" class="colorFFD4D1 svgShape"></path>
  <path fill="#434b85" d="M913.151 860.137c-2.32-.694-6.35 6.808-10.374 5.765-8.819-2.286-15.662 3.303-15.662 13.291h42.773c1.277.341 1.833-16.298-.539-17.869-1.133-.75-3.338 2.337-8.993 3.152s-3.982-3.483-7.205-4.339z" class="color434B85 svgShape"></path>
  <path fill="#ffd4d1" d="m1014.758 840.577.94 19.949c-3.691 7.322-9.27 7.815-16.136.799l-5.225-21.103 20.421.355z" class="colorFFD4D1 svgShape"></path>
  <path fill="#434b85" d="M1015.761 860.137c2.32-.694 6.35 6.808 10.374 5.765 8.819-2.286 15.662 3.303 15.662 13.291h-42.773c-1.277.341-1.833-16.298.539-17.869 1.133-.75 3.338 2.337 8.993 3.152s3.981-3.483 7.205-4.339zM980.305 603.401l-12.088 65.622-14.115 76.65-6.427 34.904-.026.113-12.906 70.109c-5.879 1.565-12.045 1.866-18.48.999a58.255 58.255 0 0 1-6.357-1.188s13.497-236.293 14.967-249.687l55.432 2.478z" class="color434B85 svgShape"></path>
  <path fill="#2b3266" d="M954.102 745.673c.452-21.717 5.554-54.125 1.463-64.918-8.283-21.85-1.862-40.693-1.862-40.693l14.513 28.961-14.114 76.65z" class="color2B3266 svgShape"></path>
  <path fill="#434b85" d="M1020.839 850.063c-4.096.99-8.618 1.621-13.123 1.81-4.992.217-9.958-.113-14.271-1.074l-15.402-81.391-31.464-166.288c5.462-3.893 11.627-5.91 18.359-6.579 10.479-1.065 22.316 1.084 34.917 4.364l5.227 71.72 15.757 177.438z" class="color434B85 svgShape"></path>
  <path fill="#2b3266" d="M1005.081 672.624c-7.001-20.171-8.07-42.849-16.341-42.755-10.888.122-16.88-10.152-16.88-10.152l-6.923-23.178c10.479-1.065 22.316 1.084 34.917 4.364l5.227 71.721zM947.649 780.69l-12.906 70.109c-5.879 1.565-12.045 1.866-18.48.999 16.845-11.086 30.707-68.281 31.386-71.108zM1007.716 851.873c-4.992.217-9.958-.113-14.271-1.074l-15.402-81.391c0-.001 17.341 65.15 29.673 82.465z" class="color2B3266 svgShape"></path>
  <path fill="#ffd4d1" d="M940.064 522.716c-2.92 6.528-8.774 14.442-18.581 23.107-1.234 1.06-24.151 19.33-38.005 16.832-9.728-1.746-23.719-22.178-31.891-35.442-4.023-6.53-6.62-11.326-6.62-11.326s-20.431-17.792-18.416-22.988c3.223-8.385 16.339 12.427 18.45 8.772 2.111-3.654 2.769-10.69 5.242-7.542 2.473 3.148 4.266 15.316 4.266 15.316s2.144 2.202 5.316 5.393c8.876 8.973 25.851 25.95 26.852 25.581 1.35-.539 51.851-35.051 53.374-33.509 2.775 2.834 3.254 8.423.013 15.806z" class="colorFFD4D1 svgShape"></path>
  <path d="M940.065 522.72c-1.458 3.245-3.626 6.837-6.657 10.693-3.061 3.886-7 8.053-11.928 12.412-1.23 1.055-24.147 19.327-38.007 16.83-2.536-.459-5.483-2.38-8.594-5.21-8.807-7.996-21.296-23.348-27.336-33.143l12.277-9.463c8.878 8.975 26.137 23.662 27.138 23.285 1.347-.539 29.283-29.517 42.987-35.022 4.293-1.724 13.054-2.642 19.649-2.601-.018 3.532-9.534 15.696-9.529 22.219z" class="color67B5F5 svgShape" style="fill: rgb(105, 48, 229);"></path>
  <path d="M933.408 533.413c-3.061 3.886-7 8.053-11.928 12.412-1.23 1.055-24.147 19.327-38.007 16.83-2.536-.459-5.483-2.38-8.594-5.21 15.116 9.378 32.578-5.433 35.507-15.11 3.366-11.12 9.977-21.53 9.977-21.53l13.045 12.608z" class="color5296F0 svgShape" style="fill: rgb(150, 107, 241);"></path>
  <path fill="#ffd4d1" d="M996.831 527.051c-2.682 6.275-1.408 18.768 1.299 31.803.337 1.621 3.929 31.875 15.161 37.804 7.886 4.162 35.512 7.38 47.076 8.067 5.694.338 9.069 2.384 14.576 2.906 5.542 4.177 24.648 14.709 29.662 10.806 8.083-6.292-16.009-10.743-15.673-14.4.336-3.657 9.412-6.052 4.491-8.042-4.921-1.99-11.884.051-17.225.1-2.565-1.754-5.841-1.853-8.66-3.966-7.906-5.925-34.134-6.867-38.398-13.767-5.813-9.409-15.14-60.222-21.039-62.834-10.789-4.777-8.247 4.448-11.27 11.523z" class="colorFFD4D1 svgShape"></path>
  <path d="M1068.472 591.15c-.682 4.858-2.047 10.722-3.287 15.904-8.755 0-22.091-1.212-34.097-3.691-7.714-1.598-14.889-3.718-19.945-6.376-8.72-4.58-12.68-35.292-13.255-38.264a98.202 98.202 0 0 1-.296-1.572c-1.958-10.489-1.509-10.327-2.164-18.373-.054-.718.018-.79.018-1.194-.009-4.221.494-7.633 1.087-11.907 3.161-2.191 4.616-21.974 9.842-18.679 15.886 10.004 19.541 51.887 24.058 67.853.799 2.81 28.906 12.536 38.039 16.299z" class="color67B5F5 svgShape" style="fill: rgb(105, 48, 229);"></path>
  <path d="M1031.088 603.362c-7.714-1.598-14.889-3.718-19.945-6.376-8.72-4.58-12.68-35.292-13.255-38.264a98.202 98.202 0 0 1-.296-1.572l9.303-20.295s.437 24.291 3.182 46.468c1.274 10.298 14.649 17.004 21.011 20.039z" class="color5296F0 svgShape" style="fill: rgb(150, 107, 241);"></path>
  <path fill="#ffffff" d="M1002.158 554.203c-2.856 22.792-3.493 43.895 2.344 66.291-11.261 2.065-21.884 3.341-32.14 3.817-2.748.126-19.747-.072-21.373-.18a177.605 177.605 0 0 1-12.41-1.248 185.41 185.41 0 0 1-17.484-3.233c3.637-12.842 3.781-29.257 2.901-45.744a39.088 39.088 0 0 0-.027-.44l-.054-.862c-.009-.198-.018-.305-.018-.305-1.823-31.412-7.147-59.271 1.042-66.006 1.338-1.105 3.688-2.349 6.471-3.543 7.139-3.035 17.747-6.513 25.156-7.016 5.702-.395 11.433 1.95 17.154 1.654 3.646-.18 32.619 4.273 34.478 13.316 1.94 9.483.695 14.943-1.603 23.213-1.573 5.64-3.396 11.962-4.437 20.286z" class="colorFFF svgShape"></path>
  <path d="M956.834 495.613c-3.125.284-7.488.903-10.83 1.854l8.921 11.153 7.705-2.533 7.614 3.28 12.664-11.199c-2.798-.922-6.646-1.803-9.411-1.661 0 0-3.78 8.292-10.457 8.292-6.677 0-6.206-9.186-6.206-9.186z" class="color67B5F5 svgShape" style="fill: rgb(105, 48, 229);"></path>
  <path fill="#ffd4d1" d="M973.844 497.172c-1.778 3.147-3.776 5.335-5.8 6.703h-.027c-6.183 4.186-12.394.629-11.847-6.703l1.779-11.409.465-2.928 12.011-2.298 3.419 16.635z" class="colorFFD4D1 svgShape"></path>
  <path d="M973.844 497.172c-1.778 3.147-3.776 5.335-5.8 6.703h-.027c-.574.164-.903.246-.903.246s4.542-13.653 1.997-13.242c-2.544.383-8.044-2.326-8.044-2.326l-3.119-2.791.465-2.928 12.011-2.298 3.42 16.636z" class="colorFAB4AF svgShape" fill="#fab4af"></path>
  <path fill="#ffd4d1" d="M976.768 475.214s-.212.669-.669 1.71h-.009c-1.931 4.374-8.168 15.286-20.728 10.229-10.76-4.336-11.103-21.826-9.811-32.053 8.578-9.336 35.674-1.21 32.017 10.03 0 0 3.663-2.361 4.964 1.481 2.165 6.388-5.764 8.603-5.764 8.603z" class="colorFFD4D1 svgShape"></path>
  <path fill="#434b85" d="m957.947 507.741 2.19 5.448h5.578l2.243-4.956-4.659-2.687z" class="color434B85 svgShape"></path>
  <path fill="#434b85" d="m965.793 511.379-2.815.075-2.815.075c-5.003 13.985-9.199 48.494-8.653 64.544l8.854 12.934 9.641-13.578c-4.564-25.655-5.703-50.749-4.212-64.05z" class="color434B85 svgShape"></path>
  <path d="m957.949 566.12-9.668 68.516a177.605 177.605 0 0 1-12.41-1.248 185.41 185.41 0 0 1-17.484-3.233c3.637-12.842 6.489-39.762 5.609-56.249a39.088 39.088 0 0 0-.027-.44l-.054-.862c-.009-.198-.018-.305-.018-.305-1.823-31.412-7.72-59.272.47-66.007.898-.736 7.1-4.218 13.152-6.427 2.981-1.087 6.088-2.021 8.836-2.479l9.95 59.008 1.644 9.726z" class="color67B5F5 svgShape" style="fill: rgb(105, 48, 229);"></path>
  <path d="m949.17 634.758-1.779-.244 9.649-68.38-11.57-68.599 1.771-.298 11.617 68.869-.019.136z" class="color8EC7F5 svgShape" style="fill: rgb(152, 110, 241);"></path>
  <path d="M1005.92 630.606c-2.514.907-5.19 1.643-7.938 2.236-17.197 3.7-37.249 1.796-37.249 1.796l-9.135-67.539 2.957-8.433 25.288-61.002s2.425.359 5.864 1.015c6.681 1.293 16.681 5.074 20.668 8.316 6.035 4.903 7.089 8.522-1.19 35.579a54 54 0 0 0-1.14 4.436c-6.225 28.737 1.875 83.596 1.875 83.596z" class="color67B5F5 svgShape" style="fill: rgb(105, 48, 229);"></path>
  <path d="m959.842 634.758-9.163-67.753 3.028-8.636 25.338-61.254 1.974.47-25.635 61.425-2.868 8.183 9.139 67.565z" class="color8EC7F5 svgShape" style="fill: rgb(152, 110, 241);"></path>
  <path d="m984.305 519.612-12.114 10.013 7.902 6.349s-16.11 16.263-25.539 22.693l25.385-61.345c1.379.299 2.339.602 5.767 1.358l-1.401 20.932z" class="color8EC7F5 svgShape" style="fill: rgb(150, 107, 241);"></path>
  <path d="m936.495 528.79 9.052-4.571-9.761-12.312 1.733-12.042c2.981-1.087 6.088-2.021 8.836-2.479l9.95 59.008c-7.893-8.405-19.81-27.604-19.81-27.604z" class="color8EC7F5 svgShape" style="fill: rgb(150, 107, 241);"></path>
  <path fill="#30334d" d="M944.285 463.328s-1.042-3.202.438-8.949c-.67.703-1.213 1.246-1.873 2.728-.775-4.879 1.551-10.741 7.351-12.546-.619-.352-2.475-.275-3.538.02 9.404-6.026 23.064-5.471 26.888-.753 0 0 1.567-1.669.487-3.668 0 0 3.502 3.866 2.867 5.263 0 0 1.044-1.74 3.418-.446-1.065.198-2.298.685-2.222 1.826 3.255.729 8.409 8.05 5.774 16.103 0 0-.354-1.162-1.127-2.372 0 0 .925 7.259-6.4 11.897 0 0 2.475-3.504-.299-9.771s-9.45 1.351-19.172-5.932c-8.646-6.478-12.592 6.6-12.592 6.6z" class="color30334D svgShape"></path>
  <path fill="#b84f4f" d="M964.967 479.191c.027.731-.301 1.409-.861 1.922-.601.556-1.47.92-2.448.956-1.05.039-2.001-.308-2.647-.886-.517-.459-.84-1.066-.865-1.739-.057-1.521 2.175-.457 3.449-.504 1.064-.039 3.315-1.27 3.372.251z" class="colorB84F4F svgShape"></path>
  <path fill="#ffe9e3" d="M954.812 467.743c-.25 1.239-1.291 2.075-2.324 1.866-1.033-.209-1.667-1.383-1.417-2.622.251-1.24 1.291-2.075 2.324-1.866 1.033.208 1.667 1.383 1.417 2.622z" class="colorFFE9E3 svgShape"></path>
  <path fill="#30334d" d="M954.411 467.662c-.197.974-1.014 1.63-1.826 1.466-.812-.164-1.31-1.086-1.113-2.061.197-.974 1.014-1.63 1.826-1.466.811.165 1.31 1.087 1.113 2.061z" class="color30334D svgShape"></path>
  <path fill="#181a2e" d="M953.863 467.551c-.124.611-.636 1.023-1.145.92-.509-.103-.822-.682-.698-1.293.123-.611.636-1.023 1.145-.92.509.104.822.682.698 1.293z" class="color181A2E svgShape"></path>
  <path fill="#ffffff" d="M952.07 466.54a.418.418 0 1 1 .82.166.418.418 0 0 1-.82-.166zM953.191 466.264a.187.187 0 0 1 .22-.146c.101.02.167.119.146.22a.187.187 0 0 1-.366-.074z" class="colorFFF svgShape"></path>
  <path fill="#ffe9e3" d="M965.879 468.412c-.133 1.257.609 2.367 1.656 2.478 1.048.111 2.005-.819 2.139-2.076.133-1.258-.608-2.367-1.656-2.478-1.048-.111-2.006.818-2.139 2.076z" class="colorFFE9E3 svgShape"></path>
  <path fill="#30334d" d="M966.286 468.455c-.105.988.478 1.86 1.302 1.947.823.087 1.576-.643 1.68-1.631.105-.988-.478-1.86-1.302-1.947-.823-.088-1.576.643-1.68 1.631z" class="color30334D svgShape"></path>
  <path fill="#181a2e" d="M966.841 468.514c-.066.62.3 1.167.816 1.221.516.055.988-.403 1.054-1.023.066-.62-.3-1.167-.816-1.221-.516-.055-.988.403-1.054 1.023z" class="color181A2E svgShape"></path>
  <path fill="#ffffff" d="M968.856 468.087a.418.418 0 1 0-.831-.088.418.418 0 0 0 .831.088z" class="colorFFF svgShape"></path>
  <path fill="#30334d" d="M955.2 463.671c-.851-.962-2.276-1.14-3.375-.518-.19.107-.227.386-.113.558.128.192.369.22.558.113a1.924 1.924 0 0 1 1.226-.219 1.96 1.96 0 0 1 1.167.667c.144.163.436.116.569-.032.16-.179.113-.405-.032-.569zM970.041 465.252c-.869-.946-2.296-1.098-3.384-.456-.187.111-.22.39-.103.56.131.19.372.213.56.103a1.92 1.92 0 0 1 1.222-.241c.464.069.854.292 1.179.645.147.16.438.108.568-.043.157-.181.106-.407-.042-.568z" class="color30334D svgShape"></path>
  <path fill="#eb9b9b" d="M960.765 474.036c-.307-.212-.671-.244-1.017-.363-.321-.111-.463-.317-.365-.638.107-.348.309-.674.474-.998l.572-1.126c.065-.128-.044-.292-.173-.335-.156-.051-.286.035-.351.163l-.632 1.245c-.187.368-.427.744-.473 1.159-.043.382.16.732.512.916.361.189.812.184 1.147.415.29.198.595-.239.306-.438z" class="colorEB9B9B svgShape"></path>
  <path fill="#ffffff" d="M967.597 468.041a.187.187 0 1 1 .366.074.187.187 0 0 1-.366-.074z" class="colorFFF svgShape"></path>
  <path fill="#ffb8b3" d="M971.827 473.08c-.032.64-1.069 1.108-2.316 1.046-1.247-.062-2.232-.632-2.2-1.271.032-.64 1.069-1.108 2.316-1.046 1.247.062 2.232.631 2.2 1.271zM954.251 471.926c-.074.637-1.14 1.035-2.38.891-1.24-.144-2.185-.778-2.111-1.414.074-.636 1.139-1.035 2.38-.891 1.24.145 2.185.778 2.111 1.414z" class="colorFFB8B3 svgShape"></path>
  <path fill="#30334d" d="M407.974 524.596a8.287 8.287 0 0 0-.382-.872c-.055-.136-.109-.245-.163-.354-1.253-2.588-3.215-4.714-5.449-6.539-5.122-4.142-11.689-6.648-15.776-12.016-.027-.027-.055-.027-.109-.027-.899-1.471-1.607-3.052-1.962-4.686v-.055a.494.494 0 0 0-.055-.191c-.163-.954-.163-1.853-.082-2.752.409-3.678 2.643-7.193 4.523-10.517.599-1.063 1.253-1.907 1.907-2.697 1.907-2.234 3.842-3.815 4.496-7.901.191-.49.354-.954.49-1.444.327-1.172.572-2.398.654-3.624.191-2.18-.082-4.441-.872-6.485a12.067 12.067 0 0 0-3.27-4.714 11.974 11.974 0 0 0-5.068-2.67c-1.689-.654-3.678-.899-5.994-.654-5.068-4.387-15.367-2.289-21.034 2.507-5.94 5.013-7.656 11.716-8.555 19.454 0 1.499.027 2.888.055 4.223-.872 7.384-2.071 14.795-5.477 21.497-3.161 6.24-8.147 11.144-13.105 15.966-4.795 4.632-9.754 9.4-12.86 15.421-2.943 5.722-4.114 12.234-3.569 18.609v.163c.027.409.082.79.136 1.199.436 2.752 1.471 5.367 2.479 7.983 1.117 2.943 4.06 7.574 6.13 9.972.082.109.272.027.3-.109 2.806 4.332 6.621 7.22 10.653 8.392 1.39.409 2.834.599 4.223.599a13.614 13.614 0 0 0 5.367-1.199c1.962-.872 3.787-2.261 5.395-4.169 2.752-3.488 5.449-7.193 8.365-10.653 2.643-3.242 5.449-6.267 8.61-8.8 2.834-2.262 5.94-4.142 9.454-5.34 2.316-.817 4.85-1.335 7.575-1.499a27.303 27.303 0 0 1 2.152-.163c1.853-.136 3.733-.191 5.531-.436h.027a19.488 19.488 0 0 0 2.561-.49 12.936 12.936 0 0 0 2.997-1.172c.436-.245.872-.518 1.28-.817.3-.272.6-.518.899-.817.463-.409.926-.845 1.335-1.308v-.027c.245-.245.463-.518.681-.763-.027.082-.082.163-.136.245a8.153 8.153 0 0 0-.49.981c-.136.273.3.463.436.218 1.117-1.989 2.561-3.733 3.842-5.585 1.144-1.716 2.016-3.542 2.507-5.531.191-.736.3-1.471.382-2.234a17.567 17.567 0 0 0-1.034-8.119zm-12.942-59.097c.627 2.016.736 4.141.518 6.212a17.661 17.661 0 0 1-.409 2.398c.055-1.253.027-2.697-.109-4.414-.327-3.76-1.907-8.337-5.34-11.035a11.998 11.998 0 0 1 5.34 6.839zm-71.004 105.688c-2.888-4.632-6.021-10.98-6.921-16.756a9.362 9.362 0 0 1-.163-1.226 14.455 14.455 0 0 1-.109-1.88c0-6.539 1.798-12.942 5.34-18.419 3.705-5.722 8.828-10.272 13.596-15.067 2.343-2.343 4.659-4.768 6.675-7.411a38.755 38.755 0 0 0 5.204-9.182c2.043-5.04 3.106-10.435 3.705-15.857.136 13.105-.327 18.637-12.07 31.279-7.929 9.7-14.931 19.563-17.492 30.352-.109.436-.218.845-.3 1.308v.027c-1.417 6.866-.954 14.141 2.207 21.961.327.654.654 1.308 1.035 1.935-.244-.355-.462-.709-.707-1.064zm83.646-35.093c-.599 1.744-1.526 3.297-2.588 4.795l-.409.572c3.515-6.294 3.46-14.304-3.923-21.824a2.636 2.636 0 0 0-.3-.272l-.027-.027c-.463-.49-.926-.926-1.444-1.417-.436-.409-.926-.817-1.39-1.253h-.027c-3.406-3.024-7.411-6.321-10.217-10.027 1.907 2.153 4.25 3.842 6.675 5.422 2.697 1.798 5.558 3.46 8.065 5.558 1.689 1.417 3.161 3.079 4.25 4.959v.027c.082.136.164.245.218.381.49.872.899 1.771 1.199 2.752.518 1.608.763 3.324.763 5.013 0 .027.027.027 0 .054 0 1.8-.272 3.571-.845 5.287z" class="color30334D svgShape"></path>
  <path fill="#ffd4d1" d="M393.376 540.649c6.826 6.457 31.55 26.026 42.255 26.099 8.372.049 28.677-38.572 32.508-46.036.418-.81 16.804-6.05 15.443-19.981-.369-3.777-12.254 12.193-15.372 10.008-1.262-.877.721-6.707-1.244-6.707-3.061 0-5.996 10.37-5.996 10.37l-27.131 31.894s-21.68-20.943-31.035-25.903c-14.142-7.489-22.269 8.078-9.428 20.256z" class="colorFFD4D1 svgShape"></path>
  <path fill="#db4969" d="M459.638 547.978c-7.262 10.311-18.395 20.022-23.367 21.203a3.495 3.495 0 0 1-.939.143c-1.306 0-2.862-.215-4.579-.599-10.195-2.28-26.506-10.624-35.27-16.66-1.869-1.288-3.389-2.468-4.445-3.461-5.222-4.963-7.413-12.323-7.19-18.779.295-9.435 5.652-16.973 14.022-12.529 7.53 3.997 26.032 18.931 32.954 24.583a347.017 347.017 0 0 1 2.674 2.209c1.332-.188 2.459-3.103 4.06-6.814 2.96-6.868 7.53-16.481 18.037-16.687l2.513 1.663 6.913 4.579c3.453 5.052.171 13.279-5.383 21.149z" class="colorDB4969 svgShape"></path>
  <path fill="#e6e6e6" d="M462.84 534.135c1.171-7.932-5.017-11.652-5.017-11.652l.286-.233 6.913 4.579c3.452 5.053.17 13.28-5.383 21.149 1.269-4.606 2.646-10.034 3.201-13.843zM430.754 568.725c-10.195-2.28-26.506-10.624-35.27-16.66 2.486-9.005 4.954-17.814 4.954-17.814l8.567-1.538s5.688 8.988 4.114 19.487c-1.109 7.404 11.303 12.599 17.635 16.525z" class="colorE6E6E6 svgShape"></path>
  <path fill="#ffffff" d="M466.629 523.616c-.108 1.295-.664 2.881-1.608 3.209l-9.428-6.236c-.1-1.31 1.303-2.175 2.204-2.457l8.832 5.484z" class="colorFFF svgShape"></path>
  <path fill="#363c6b" d="M442.763 883.15c-6.304.311-8.578-3.143-11.797-6.957-3.22-3.815-8.639-4.453-8.639-4.453l.278 12.728-4.033.006c.043-1.102-1.902-9.036-3.493-14.76a83.669 83.669 0 0 0-.664-2.287l-.003-.027c-.382-1.22-.682-2.202-.919-2.861-1.304-3.616.838-13.885.838-13.885.031.025.127-.033.157-.009 4.806 1.528 10.159.591 14.625-1.959 0 0 .003.027.039.105l.006.054c.093.347.385 1.247.853 2.513 1.121 2.95 3.307 7.84 6.852 12.113.95 1.157 2.257 2.302 3.753 3.428 6.275 4.658 15.945 8.997 16.81 12.111 1.082 3.858-8.359 3.829-14.663 4.14z" class="color363C6B svgShape"></path>
  <path fill="#ffcfcf" d="M445.363 870.077c-7.91 12.439-30.973-19.446-30.973-19.446.933.1-1.968-17.841-1.968-17.841s9.794-4.244 13.086-6.115c2.121 13.298 2.577 29.197 19.855 43.402z" class="colorFFCFCF svgShape"></path>
  <path fill="#363c6b" d="M350.816 889.285c-5.842-2.389-6.438-6.481-7.738-11.301-1.3-4.82-5.939-7.694-5.939-7.694l-5.141 11.647-3.655-1.704c.506-.98 2.106-8.991 3.09-14.849.143-.845.268-1.637.368-2.353l.009-.026c.171-1.267.316-2.283.38-2.981.35-3.828 6.642-12.222 6.642-12.222.017.035.129.024.146.058 3.706 3.42 8.951 4.839 14.077 4.422 0 0-.009.026-.009.112l-.017.051c-.063.354-.18 1.293-.292 2.637-.235 3.147-.327 8.502 1.074 13.875.37 1.45 1.068 3.042 1.947 4.695 3.71 6.878 10.631 14.905 10.095 18.093-.655 3.956-9.195-.071-15.037-2.46z" class="color363C6B svgShape"></path>
  <path fill="#ffcfcf" d="M358.71 878.546c-12.436 7.916-19.815-30.738-19.815-30.738.803.486 4.841-19.172 4.841-19.172s11.606 2.484 15.381 2.184c-3.715 12.943-10.038 27.537-.407 47.726z" class="colorFFCFCF svgShape"></path>
  <path fill="#434b85" d="M445.357 834.222c-3.702 3.872-10.222 6.457-17.304 7.825-4.659.921-9.586 1.332-14.111 1.225l-.939-.027c-6.877-.242-12.743-1.637-15.301-4.087 4.471-38.095-5.643-76.048-15.855-114.251-3.819-14.308-7.655-28.652-10.74-43.05-5.053-23.6-8.102-47.351-5.804-71.326.17-1.878.384-3.765.662-5.643.51-4.006 1.198-8.013 2.093-12.01 0-.25.054-.519.134-.769.17-.814.358-1.628.572-2.45.304-1.332.626-2.701.984-4.033l1.878-.215 30.378-3.327c.089.411.17.787.277 1.198a499.31 499.31 0 0 0 1.556 6.975c.027.134.054.277.107.411 1.824 7.95 3.863 16.24 5.473 24.851.385 2.066.849 4.14 1.145 6.233 10.596 74.906 14.576 140.786 34.795 212.47z" class="color434B85 svgShape"></path>
  <path fill="#31386b" d="M413.62 840.75c-.197.841-.402 1.672-.617 2.495-6.877-.242-12.743-1.637-15.301-4.087 4.471-38.095-5.643-76.048-15.855-114.251-3.819-14.308-7.655-28.652-10.74-43.05l19.361-74.438s11.366 48.12 2.853 88.38c-8.514 40.251 28.463 110.272 20.299 144.951z" class="color31386B svgShape"></path>
  <path fill="#434b85" d="m390.163 590.071-.304 4.892-.054.966-7.959 128.979v.027c-5.232 41.556-9.318 83.05-5.643 114.135.68 5.831-9.399 6.546-20.845 4.775a91.725 91.725 0 0 1-3.345-.572c-3.693-.689-7.44-1.61-10.928-2.674-6.349-1.932-11.885-4.301-14.711-6.644 9.595-32.462 13.155-61.078 14.398-86.994 1.279-26.497.134-50.177.537-72.265.402-22.357 2.397-43.094 10.105-63.484a116.442 116.442 0 0 1 4.74-10.982 108.547 108.547 0 0 1 4.766-8.934c.188-.358.385-.68.599-1.037.027-.027.027-.027.027-.054l7.217-.546 16.365.313 5.035.099z" class="color434B85 svgShape"></path>
  <path fill="#31386b" d="M369.291 615.665c-20.119 5.19-20.425 27.373-27.982 59.03.402-22.357 2.397-43.094 10.105-63.484a116.442 116.442 0 0 1 4.74-10.982 108.547 108.547 0 0 1 4.766-8.934c.188-.358.385-.68.599-1.037.027-.027.027-.027.027-.054l7.217-.546 16.365.313 4.731 4.99.778.814-.832.152c-2.871.555-12.493 2.522-18.878 5.357-3.496 1.548 7.055 12.139-1.636 14.381z" class="color31386B svgShape"></path>
  <path fill="#db4969" d="M408.138 552.637a82.699 82.699 0 0 1-1.198 4.543 45.117 45.117 0 0 0-.438 1.502c-4.14 14.004-4.793 19.048-4.033 24.547.304 2.102.823 4.275 1.422 7.029h-.054a103.952 103.952 0 0 1-9.318 1.744c-8.558 1.225-17.224 1.359-26.327.107-.85-.125-1.699-.25-2.558-.393a98.188 98.188 0 0 1-4.301-.805c.08-.215.134-.429.188-.653.027-.027.027-.027.027-.054.599-1.985.787-4.391.706-6.948-.107-4.579-1.037-9.64-1.958-13.539a58.721 58.721 0 0 0-.93-3.461c-1.189-3.971-2.692-7.574-3.899-11.205a40.441 40.441 0 0 1-.107-.322c-.188-.653-.402-1.306-.599-1.958-.241-.849-.492-1.663-.733-2.486a111.73 111.73 0 0 0-2.128-6.206c-4.033-10.794-8.388-18.037-8.388-18.037.331-.25.653-.519.984-.733a18.81 18.81 0 0 1 1.332-1.037c.054-.054.134-.081.188-.134 5.312-3.926 11.035-7.252 17.197-9.837a63.933 63.933 0 0 1 4.686-1.824h.027l4.194-.277 11.607-.787s2.397.653 5.562 1.744c2.531.894 5.58 2.093 8.281 3.514h.027c2.236 1.171 4.221 2.477 5.527 3.89.027.027.054.063.089.089.054.054.107.134.161.188 2.558 3.023 4.194 6.43 5.151 9.917 0 .027.027.027 0 .054.188.626.349 1.279.483 1.905 1.446 7.028.462 14.28-.87 19.923z" class="colorDB4969 svgShape"></path>
  <path fill="#e6e6e6" d="M365.633 591.716a98.188 98.188 0 0 1-4.301-.805c.08-.215.134-.429.188-.653.027-.027.027-.027.027-.054.599-1.985.787-4.391.706-6.948-.107-4.579-1.037-9.64-1.958-13.539a58.721 58.721 0 0 0-.93-3.461c-1.189-3.971-2.692-7.574-3.899-11.205l9.41-19.711s3.11 4.714-.351 16.858c-3.452 12.144 1.611 31.024 7.826 33.322 3.147 1.164-.994 3.558-6.718 6.196z" class="colorE6E6E6 svgShape"></path>
  <path fill="#ffd4d1" d="M367.903 512.484c1.783 2.709 3.704 4.548 5.6 5.65l.025-.002c5.79 3.373 11.135-.188 10.201-6.72l-2.284-10.107-.594-2.593-10.893-1.329-2.055 15.101z" class="colorFFD4D1 svgShape"></path>
  <path fill="#fab4af" d="M367.903 512.484c1.783 2.709 3.704 4.548 5.6 5.65l.025-.002c.524.112.823.166.823.166s-4.894-11.948-2.591-11.735c2.301.189 7.061-2.57 7.061-2.57l2.623-2.688-.594-2.593-10.893-1.329-2.054 15.101z" class="colorFAB4AF svgShape"></path>
  <path fill="#ffd4d1" d="M386.958 466.384c2.073 3.828 7.427 28.938-2.592 33.565-14.512 6.703-21.722-9.671-21.722-9.671s-6.879-1.212-6.665-7.341c.15-4.299 5.149-1.734 5.149-1.734s13.258-20.684 18.971-20.468c3.645.139 6.051 4.158 6.859 5.649z" class="colorFFD4D1 svgShape"></path>
  <path fill="#e6549b" d="M346.818 561.463v.009c-.009 0-.018.009-.027.009a.111.111 0 0 0 .027-.018z" class="colorE6549B svgShape"></path>
  <path fill="#ffffff" d="M383.732 511.41s6.514-.386 5.801 3.394-3.564 7.885-6.377 7.233c-2.813-.652-5.65-2.559-5.65-2.559s-3.36 3.473-6.603 3.81c-3.705.385-9.075-6.097-8.159-8.235 1.195-2.789 5.167-2.572 5.167-2.572s4.528 5.037 9.74 4.684c5.212-.353 6.081-5.755 6.081-5.755z" class="colorFFF svgShape"></path>
  <path fill="#30334d" d="M379.449 458.748c-18.035-6.059-24.22 15.306-18.025 25.133 4.532.46 23.665-12.369 23.665-21.839.001-1.481-5.395-2.215-5.64-3.294z" class="color30334D svgShape"></path>
  <path fill="#ffffff" d="M375.424 517.201c-.869 12.433-2.991 24.436-6.814 35.854l2.639 6.964 4.959-5.991c2.037-8.673 2.513-21.887 2.586-36.267l-3.37-.56z" class="colorFFF svgShape"></path>
  <path fill="#ffffff" d="M379.44 517.079c4.398 11.662 9.874 22.551 16.811 32.394l-.531 7.428-6.469-4.317c-4.439-7.724-8.684-20.246-12.879-34.001l3.068-1.504z" class="colorFFF svgShape"></path>
  <path fill="#e6549b" d="M434.259 549.99c-.188-2.576-1.699-5.518-3.434-8.111a347.017 347.017 0 0 1 2.674 2.209c1.332-.188 2.459-3.103 4.06-6.814.715 7.297-3.3 12.716-3.3 12.716z" class="colorE6549B svgShape"></path>
  <path fill="#31386b" d="M352.014 843.272c-3.693-.689-7.44-1.61-10.928-2.674-6.349-1.932-11.885-4.301-14.711-6.644 9.595-32.462 13.155-61.078 14.398-86.994 4.606 8.102-7.404 77.586 11.241 96.312z" class="color31386B svgShape"></path>
  <path fill="#b84f4f" d="M375.494 492.555c-.075.61.151 1.201.584 1.67.464.508 1.165.874 1.98.974.876.108 1.697-.115 2.278-.553.465-.348.779-.832.848-1.393.156-1.269-1.788-.537-2.851-.668-.887-.108-2.683-1.298-2.839-.03z" class="colorB84F4F svgShape"></path>
  <path fill="#ffe9e3" d="M384.809 483.699c.121 1.055.933 1.829 1.812 1.728.879-.101 1.494-1.039 1.372-2.094-.121-1.055-.933-1.829-1.812-1.728-.879.101-1.494 1.038-1.372 2.094z" class="colorFFE9E3 svgShape"></path>
  <path fill="#30334d" d="M385.15 483.659c.095.829.733 1.437 1.424 1.357.691-.079 1.174-.816 1.078-1.645-.095-.829-.733-1.437-1.424-1.357-.691.08-1.173.816-1.078 1.645z" class="color30334D svgShape"></path>
  <path fill="#181a2e" d="M385.616 483.606c.06.52.46.901.893.852.433-.05.736-.512.676-1.032-.06-.52-.46-.901-.893-.851-.433.049-.736.511-.676 1.031z" class="color181A2E svgShape"></path>
  <path fill="#ffffff" d="M387.189 482.887a.351.351 0 1 0-.697.08.351.351 0 0 0 .697-.08zM386.27 482.576a.157.157 0 1 0-.312.036.157.157 0 0 0 .312-.036z" class="colorFFF svgShape"></path>
  <path fill="#ffe9e3" d="M375.499 483.469c.022 1.062-.678 1.938-1.563 1.956-.885.018-1.62-.828-1.642-1.89-.022-1.062.678-1.938 1.563-1.956.885-.018 1.62.828 1.642 1.89z" class="colorFFE9E3 svgShape"></path>
  <path fill="#30334d" d="M375.156 483.476c.017.834-.533 1.522-1.228 1.537-.695.014-1.273-.65-1.29-1.485-.017-.834.533-1.522 1.228-1.537.695-.014 1.272.651 1.29 1.485z" class="color30334D svgShape"></path>
  <path fill="#181a2e" d="M374.686 483.486c.011.523-.334.955-.77.964-.436.009-.798-.408-.809-.931-.011-.523.334-.955.77-.964.436-.009.799.408.809.931z" class="color181A2E svgShape"></path>
  <path fill="#ffffff" d="M373.031 482.986a.35.35 0 1 1 .702-.014.35.35 0 0 1-.702.014z" class="colorFFF svgShape"></path>
  <path fill="#30334d" d="M384.774 480.263c.781-.744 1.986-.792 2.861-.193.151.103.163.339.055.475-.12.152-.324.158-.475.055a1.623 1.623 0 0 0-1.011-.271 1.649 1.649 0 0 0-1.024.475c-.132.126-.373.066-.474-.068-.12-.16-.065-.346.068-.473zM372.241 480.528c.795-.73 2-.755 2.865-.14.149.106.156.342.046.476-.123.15-.327.152-.476.046a1.61 1.61 0 0 0-1.006-.289 1.652 1.652 0 0 0-1.033.456c-.135.124-.374.059-.472-.076-.118-.163-.059-.349.076-.473z" class="color30334D svgShape"></path>
  <path fill="#eb9b9b" d="M379.378 488.541c.272-.155.579-.156.877-.232.277-.07.41-.233.351-.508-.064-.299-.211-.586-.326-.869l-.398-.983c-.045-.111.058-.242.169-.268.134-.032.236.049.282.161l.441 1.087c.13.321.305.653.313 1.004.008.323-.186.601-.494.73-.316.133-.692.096-.989.265-.258.146-.482-.241-.226-.387z" class="colorEB9B9B svgShape"></path>
  <path fill="#ffffff" d="M374.087 483.037a.157.157 0 1 0-.312.036.157.157 0 0 0 .312-.036z" class="colorFFF svgShape"></path>
  <path fill="#ffb8b3" d="M370.189 486.952c-.019.538.815 1.004 1.863 1.04 1.048.037 1.913-.369 1.932-.907.019-.538-.815-1.004-1.863-1.04-1.049-.037-1.914.369-1.932.907zM384.98 487.239c.017.538.88.948 1.928.915 1.048-.033 1.884-.495 1.868-1.033-.017-.538-.88-.948-1.928-.915-1.049.033-1.885.495-1.868 1.033z" class="colorFFB8B3 svgShape"></path>
  <path d="M588.956 275.68c-43.5-25.761-99.755-11.486-125.402 31.823-25.647 43.308-11.123 99.499 32.377 125.26 43.5 25.761 99.755 11.485 125.402-31.823 25.647-43.309 11.124-99.499-32.377-125.26zm-85.869 144.999c-36.867-21.833-49.132-69.286-27.396-105.99 21.736-36.704 69.243-48.759 106.11-26.927 36.867 21.833 49.132 69.286 27.396 105.99-21.737 36.704-69.243 48.76-106.11 26.927z" class="color67B5F5 svgShape" style="fill: rgb(105, 48, 229);"></path>
  <path d="m495.963 420.57 19.357 11.465-11.414 19.271-19.357-11.464z" class="color67B5F5 svgShape" style="fill: rgb(105, 48, 229);"></path>
  <path d="M410.286 630.97c-6.031 10.951-19.948 14.724-30.747 8.328-10.799-6.395-14.191-20.419-7.478-30.965l90.94-142.919 5.06-7.963 3.808-5.965 5.06-7.964 6.332-9.95 26.815 15.88-5.681 10.336-4.551 8.265-3.4 6.206-4.551 8.265-81.607 148.446z" class="color67B5F5 svgShape" style="fill: rgb(105, 48, 229);"></path>
  <path d="m499.845 468.053-27.976-16.567 5.061-7.964 27.466 16.266zM491.894 482.524l-28.893-17.11 5.061-7.963 28.383 16.808z" class="colorFFF svgShape" fill="#ffffff"></path>
  <path fill="#ffd4d1" d="M348.473 593.086c7.098 5.37 26.874 6.5 40.588 3.915 5.479-1.02 9.142-1.868 9.142-1.868s4.481 1.425 6.916-3.763c1.453-3.127 4.105-3.667 7.752-7.087 3.647-3.42.198-7.326-3.988-6.888-8.822.897-13.578 9.618-13.578 9.618l-5.572-.592-28.371-8.429s3.514-24.514 3.058-35.06c-.939-22.046-21.142-21.819-23.529-11.505-3.992 17.322-2.361 54.162 7.582 61.659z" class="colorFFD4D1 svgShape"></path>
  <path fill="#db4969" d="M368.699 542.955c.178 4.166-.656 10.428-1.726 16.471l.006.006c-.006.006-.007.019-.013.025l-.001.038c-.387 2.18-.806 4.328-1.228 6.343 0 .013-.007.019-.007.031-1.332 6.493-2.597 11.557-2.597 11.557 2.276.965 4.429 1.403 6.462 1.585 8.522.762 15.01-3.067 20.134 7.407-.097 1.617-.198 3.386-.305 5.161-.122 1.863-.249 3.72-.367 5.419-3.984 6.57-13.543 6.678-22.803 4.281-8.48-2.178-16.719-6.456-20.229-9.781-9.034-8.571-8.744-44.515-4.761-61.837 2.387-10.314 26.49-8.755 27.435 13.294z" class="colorDB4969 svgShape"></path>
  <path fill="#e6e6e6" d="M389.424 591.581c-.122 1.863-.249 3.72-.367 5.419-3.984 6.57-13.543 6.678-22.803 4.281.579-.146 1.414-.154 2.573.035 10.263 1.609 20.597-9.735 20.597-9.735zM365.73 565.87c-1.332 6.493-2.597 11.557-2.597 11.557 2.276.965 4.429 1.403 6.462 1.585-7.639 2.938-13.032.452-13.032.452 5.232-3.367 7.864-9.112 9.167-13.594z" class="colorE6E6E6 svgShape"></path>
  <path fill="#ffffff" d="M392.714 596.197c-.343 1.333-2.938 1.353-3.685.689l.703-10.636c1.095-.726 2.686-.214 3.372.434l-.39 9.513z" class="colorFFF svgShape"></path>
</svg>